<?xml version="1.0" encoding="UTF-8" standalone="no"?>
<svg
   xmlns:dc="http://purl.org/dc/elements/1.1/"
   xmlns:cc="http://creativecommons.org/ns#"
   xmlns:rdf="http://www.w3.org/1999/02/22-rdf-syntax-ns#"
   xmlns:svg="http://www.w3.org/2000/svg"
   xmlns="http://www.w3.org/2000/svg"
   xmlns:sodipodi="http://sodipodi.sourceforge.net/DTD/sodipodi-0.dtd"
   xmlns:inkscape="http://www.inkscape.org/namespaces/inkscape"
   version="1.1"
   id="svg2"
   xml:space="preserve"
   width="2666.6667"
   height="2666.6667"
   viewBox="0 0 2666.6667 2666.6667"
   sodipodi:docname="Eros IT-pa-dd.ai"><metadata
     id="metadata8"><rdf:RDF><cc:Work
         rdf:about=""><dc:format>image/svg+xml</dc:format><dc:type
           rdf:resource="http://purl.org/dc/dcmitype/StillImage" /></cc:Work></rdf:RDF></metadata><defs
     id="defs6"><clipPath
       clipPathUnits="userSpaceOnUse"
       id="clipPath22"><path
         d="M 0,2000 H 2000 V 0 H 0 Z"
         id="path20" /></clipPath></defs><sodipodi:namedview
     pagecolor="#ffffff"
     bordercolor="#666666"
     borderopacity="1"
     objecttolerance="10"
     gridtolerance="10"
     guidetolerance="10"
     inkscape:pageopacity="0"
     inkscape:pageshadow="2"
     inkscape:window-width="640"
     inkscape:window-height="480"
     id="namedview4" /><g
     id="g10"
     inkscape:groupmode="layer"
     inkscape:label="Eros IT-pa-dd"
     transform="matrix(1.3333333,0,0,-1.3333333,0,2666.6667)"><g
       id="g12"
       transform="translate(788.1191,705.3184)"><path
         d="M 0,0 H 26.356 V -13.565 H -18.476 V 68.604 H 25.323 V 55.037 H 0 V 35.012 H 21.576 V 21.446 L 0,21.446 Z"
         style="fill:#000000;fill-opacity:1;fill-rule:nonzero;stroke:none"
         id="path14" /></g><g
       id="g16"><g
         id="g18"
         clip-path="url(#clipPath22)"><g
           id="g24"
           transform="translate(861.5029,760.3555)"><path
             d="m 0,0 v -24.805 h 9.948 c 1.206,0 2.067,0.236 2.584,0.711 0.517,0.471 0.775,1.27 0.775,2.39 V -3.23 c 0,2.152 -1.12,3.23 -3.359,3.23 z m 0,-37.854 v -30.749 h -18.347 v 82.17 h 33.85 c 10.853,0 16.279,-4.739 16.279,-14.212 v -22.998 c 0,-7.58 -3.446,-12.144 -10.335,-13.695 l 14.47,-31.265 H 16.149 L 3.23,-37.854 Z"
             style="fill:#000000;fill-opacity:1;fill-rule:nonzero;stroke:none"
             id="path26" /></g><g
           id="g28"
           transform="translate(965.6338,778.0557)"><path
             d="m 0,0 h -12.144 l 11.887,18.476 h 16.149 z m -10.207,-69.508 v 48.577 c 0,2.153 -1.119,3.231 -3.358,3.231 h -6.202 c -2.326,0 -3.487,-1.078 -3.487,-3.231 v -48.577 c 0,-2.153 1.161,-3.229 3.487,-3.229 h 6.202 c 2.239,0 3.358,1.076 3.358,3.229 M -5.167,18.476 -21.059,0 h -12.144 l 11.886,18.476 z M -25.322,-4.133 h 17.313 c 10.852,0 16.278,-4.739 16.278,-14.212 v -53.616 c 0,-9.56 -5.426,-14.342 -16.278,-14.342 h -17.313 c -10.94,0 -16.408,4.782 -16.408,14.342 v 53.616 c 0,9.473 5.468,14.212 16.408,14.212"
             style="fill:#000000;fill-opacity:1;fill-rule:nonzero;stroke:none"
             id="path30" /></g><g
           id="g32"
           transform="translate(1032.8174,708.5479)"><path
             d="m 0,0 v 14.857 c 0,1.121 -0.26,1.916 -0.778,2.392 -0.516,0.471 -1.422,0.71 -2.712,0.71 h -11.371 c -10.161,0 -15.244,4.821 -15.244,14.47 v 18.734 c 0,9.473 5.426,14.212 16.278,14.212 H 1.937 c 10.851,0 16.278,-4.739 16.278,-14.212 V 40.438 H -0.26 v 8.139 c 0,2.152 -1.162,3.231 -3.489,3.231 h -4.393 c -2.323,0 -3.489,-1.079 -3.489,-3.231 V 34.108 c 0,-1.12 0.26,-1.917 0.775,-2.389 0.519,-0.476 1.421,-0.711 2.714,-0.711 H 2.971 c 5.509,0 9.474,-1.186 11.885,-3.554 2.409,-2.369 3.618,-5.877 3.618,-10.529 V -2.453 c 0,-9.561 -5.426,-14.342 -16.279,-14.342 h -15.634 c -10.941,0 -16.408,4.781 -16.408,14.342 V 8.14 h 18.476 V 0 c 0,-2.153 1.162,-3.229 3.489,-3.229 H -3.49 C -1.166,-3.229 0,-2.153 0,0"
             style="fill:#000000;fill-opacity:1;fill-rule:nonzero;stroke:none"
             id="path34" /></g><path
           d="m 1126.221,773.923 h 18.347 v -82.17 h -18.347 z"
           style="fill:#000000;fill-opacity:1;fill-rule:nonzero;stroke:none"
           id="path36" /><g
           id="g38"
           transform="translate(1220.6621,773.9229)"><path
             d="M 0,0 V -13.567 H -15.116 V -82.17 H -33.59 v 68.603 H -48.577 V 0 Z"
             style="fill:#000000;fill-opacity:1;fill-rule:nonzero;stroke:none"
             id="path40" /></g><path
           d="M 1154.691,943.987 H 841.896 v 177.439 h 312.795 z M 819.148,921.238 h 358.292 v 222.937 H 819.148 Z"
           style="fill:#000000;fill-opacity:1;fill-rule:nonzero;stroke:#000000;stroke-width:1;stroke-linecap:butt;stroke-linejoin:miter;stroke-miterlimit:10;stroke-dasharray:none;stroke-opacity:1"
           id="path42" /><path
           d="M 1052.891,826.263 H 941.422 v 21.611 h 111.469 z m 123.98,88.719 H 818.579 l -48.91,-105.781 h 454.975 z"
           style="fill:#000000;fill-opacity:1;fill-rule:nonzero;stroke:none"
           id="path44" /><path
           d="M 1052.891,826.263 H 941.422 v 21.611 h 111.469 z m 123.98,88.719 H 818.579 l -48.91,-105.781 h 454.975 z"
           style="fill:none;stroke:#000000;stroke-width:1;stroke-linecap:butt;stroke-linejoin:miter;stroke-miterlimit:10;stroke-dasharray:none;stroke-opacity:1"
           id="path46" /><g
           id="g48"
           transform="translate(1094.5674,888.2529)"><path
             d="m 0,0 h -17.855 l -4.053,-10.237 h 17.856 z"
             style="fill:#ffffff;fill-opacity:1;fill-rule:nonzero;stroke:none"
             id="path50" /></g><g
           id="g52"
           transform="translate(1094.5674,888.2529)"><path
             d="m 0,0 h -17.855 l -4.053,-10.237 h 17.856 z"
             style="fill:none;stroke:#000000;stroke-width:1;stroke-linecap:butt;stroke-linejoin:miter;stroke-miterlimit:10;stroke-dasharray:none;stroke-opacity:1"
             id="path54" /></g><g
           id="g56"
           transform="translate(1117.3164,888.2529)"><path
             d="m 0,0 h -17.856 l -4.052,-10.237 h 17.855 z"
             style="fill:#ffffff;fill-opacity:1;fill-rule:nonzero;stroke:none"
             id="path58" /></g><g
           id="g60"
           transform="translate(1117.3164,888.2529)"><path
             d="m 0,0 h -17.856 l -4.052,-10.237 h 17.855 z"
             style="fill:none;stroke:#000000;stroke-width:1;stroke-linecap:butt;stroke-linejoin:miter;stroke-miterlimit:10;stroke-dasharray:none;stroke-opacity:1"
             id="path62" /></g><g
           id="g64"
           transform="translate(1049.0703,888.2529)"><path
             d="m 0,0 h -17.856 l -4.052,-10.237 h 17.855 z"
             style="fill:#ffffff;fill-opacity:1;fill-rule:nonzero;stroke:none"
             id="path66" /></g><g
           id="g68"
           transform="translate(1049.0703,888.2529)"><path
             d="m 0,0 h -17.856 l -4.052,-10.237 h 17.855 z"
             style="fill:none;stroke:#000000;stroke-width:1;stroke-linecap:butt;stroke-linejoin:miter;stroke-miterlimit:10;stroke-dasharray:none;stroke-opacity:1"
             id="path70" /></g><g
           id="g72"
           transform="translate(1128.2871,903.6084)"><path
             d="M 0,0 -4.277,-10.806 H 13.579 L 17.855,0 Z"
             style="fill:#ffffff;fill-opacity:1;fill-rule:nonzero;stroke:none"
             id="path74" /></g><g
           id="g76"
           transform="translate(1128.2871,903.6084)"><path
             d="M 0,0 -4.277,-10.806 H 13.579 L 17.855,0 Z"
             style="fill:none;stroke:#000000;stroke-width:1;stroke-linecap:butt;stroke-linejoin:miter;stroke-miterlimit:10;stroke-dasharray:none;stroke-opacity:1"
             id="path78" /></g><g
           id="g80"
           transform="translate(1071.8184,888.2529)"><path
             d="m 0,0 h -17.855 l -4.052,-10.237 h 17.855 z"
             style="fill:#ffffff;fill-opacity:1;fill-rule:nonzero;stroke:none"
             id="path82" /></g><g
           id="g84"
           transform="translate(1071.8184,888.2529)"><path
             d="m 0,0 h -17.855 l -4.052,-10.237 h 17.855 z"
             style="fill:none;stroke:#000000;stroke-width:1;stroke-linecap:butt;stroke-linejoin:miter;stroke-miterlimit:10;stroke-dasharray:none;stroke-opacity:1"
             id="path86" /></g><g
           id="g88"
           transform="translate(1055.7637,892.8027)"><path
             d="m 0,0 h 17.855 l 4.278,10.806 H 4.277 Z"
             style="fill:#ffffff;fill-opacity:1;fill-rule:nonzero;stroke:none"
             id="path90" /></g><g
           id="g92"
           transform="translate(1055.7637,892.8027)"><path
             d="m 0,0 h 17.855 l 4.278,10.806 H 4.277 Z"
             style="fill:none;stroke:#000000;stroke-width:1;stroke-linecap:butt;stroke-linejoin:miter;stroke-miterlimit:10;stroke-dasharray:none;stroke-opacity:1"
             id="path94" /></g><g
           id="g96"
           transform="translate(1010.2666,892.8027)"><path
             d="m 0,0 h 17.855 l 4.278,10.806 H 4.277 Z"
             style="fill:#ffffff;fill-opacity:1;fill-rule:nonzero;stroke:none"
             id="path98" /></g><g
           id="g100"
           transform="translate(1010.2666,892.8027)"><path
             d="m 0,0 h 17.855 l 4.278,10.806 H 4.277 Z"
             style="fill:none;stroke:#000000;stroke-width:1;stroke-linecap:butt;stroke-linejoin:miter;stroke-miterlimit:10;stroke-dasharray:none;stroke-opacity:1"
             id="path102" /></g><g
           id="g104"
           transform="translate(1033.0146,892.8027)"><path
             d="m 0,0 h 17.856 l 4.278,10.806 H 4.277 Z"
             style="fill:#ffffff;fill-opacity:1;fill-rule:nonzero;stroke:none"
             id="path106" /></g><g
           id="g108"
           transform="translate(1033.0146,892.8027)"><path
             d="m 0,0 h 17.856 l 4.278,10.806 H 4.277 Z"
             style="fill:none;stroke:#000000;stroke-width:1;stroke-linecap:butt;stroke-linejoin:miter;stroke-miterlimit:10;stroke-dasharray:none;stroke-opacity:1"
             id="path110" /></g><g
           id="g112"
           transform="translate(1026.3213,888.2529)"><path
             d="m 0,0 h -17.855 l -4.053,-10.237 h 17.856 z"
             style="fill:#ffffff;fill-opacity:1;fill-rule:nonzero;stroke:none"
             id="path114" /></g><g
           id="g116"
           transform="translate(1026.3213,888.2529)"><path
             d="m 0,0 h -17.855 l -4.053,-10.237 h 17.856 z"
             style="fill:none;stroke:#000000;stroke-width:1;stroke-linecap:butt;stroke-linejoin:miter;stroke-miterlimit:10;stroke-dasharray:none;stroke-opacity:1"
             id="path118" /></g><g
           id="g120"
           transform="translate(1101.2607,892.8027)"><path
             d="m 0,0 h 17.856 l 4.278,10.806 H 4.277 Z"
             style="fill:#ffffff;fill-opacity:1;fill-rule:nonzero;stroke:none"
             id="path122" /></g><g
           id="g124"
           transform="translate(1101.2607,892.8027)"><path
             d="m 0,0 h 17.856 l 4.278,10.806 H 4.277 Z"
             style="fill:none;stroke:#000000;stroke-width:1;stroke-linecap:butt;stroke-linejoin:miter;stroke-miterlimit:10;stroke-dasharray:none;stroke-opacity:1"
             id="path126" /></g><g
           id="g128"
           transform="translate(1078.5127,892.8027)"><path
             d="m 0,0 h 17.855 l 4.278,10.806 H 4.277 Z"
             style="fill:#ffffff;fill-opacity:1;fill-rule:nonzero;stroke:none"
             id="path130" /></g><g
           id="g132"
           transform="translate(1078.5127,892.8027)"><path
             d="m 0,0 h 17.855 l 4.278,10.806 H 4.277 Z"
             style="fill:none;stroke:#000000;stroke-width:1;stroke-linecap:butt;stroke-linejoin:miter;stroke-miterlimit:10;stroke-dasharray:none;stroke-opacity:1"
             id="path134" /></g><g
           id="g136"
           transform="translate(1159.377,867.21)"><path
             d="M 0,0 H 21.011 L 18.509,6.256 H 2.477 Z"
             style="fill:#ffffff;fill-opacity:1;fill-rule:nonzero;stroke:none"
             id="path138" /></g><g
           id="g140"
           transform="translate(1159.377,867.21)"><path
             d="M 0,0 H 21.011 L 18.509,6.256 H 2.477 Z"
             style="fill:none;stroke:#000000;stroke-width:1;stroke-linecap:butt;stroke-linejoin:miter;stroke-miterlimit:10;stroke-dasharray:none;stroke-opacity:1"
             id="path142" /></g><g
           id="g144"
           transform="translate(1140.9053,878.0156)"><path
             d="m 0,0 h 17.856 l 4.052,10.237 H 4.053 Z"
             style="fill:#ffffff;fill-opacity:1;fill-rule:nonzero;stroke:none"
             id="path146" /></g><g
           id="g148"
           transform="translate(1140.9053,878.0156)"><path
             d="m 0,0 h 17.856 l 4.052,10.237 H 4.053 Z"
             style="fill:none;stroke:#000000;stroke-width:1;stroke-linecap:butt;stroke-linejoin:miter;stroke-miterlimit:10;stroke-dasharray:none;stroke-opacity:1"
             id="path150" /></g><g
           id="g152"
           transform="translate(1171.9707,888.2529)"><path
             d="M 0,0 H -4.265 L -8.316,-10.237 H 4.095 Z"
             style="fill:#ffffff;fill-opacity:1;fill-rule:nonzero;stroke:none"
             id="path154" /></g><g
           id="g156"
           transform="translate(1171.9707,888.2529)"><path
             d="M 0,0 H -4.265 L -8.316,-10.237 H 4.095 Z"
             style="fill:none;stroke:#000000;stroke-width:1;stroke-linecap:butt;stroke-linejoin:miter;stroke-miterlimit:10;stroke-dasharray:none;stroke-opacity:1"
             id="path158" /></g><g
           id="g160"
           transform="translate(838.4785,873.4658)"><path
             d="M 0,0 H -19.331 V 4.55 H 1.801 l 4.052,10.237 h -20.621 l -9.469,-21.043 h 21.76 z"
             style="fill:#ffffff;fill-opacity:1;fill-rule:nonzero;stroke:none"
             id="path162" /></g><g
           id="g164"
           transform="translate(838.4785,873.4658)"><path
             d="M 0,0 H -19.331 V 4.55 H 1.801 l 4.052,10.237 h -20.621 l -9.469,-21.043 h 21.76 z"
             style="fill:none;stroke:#000000;stroke-width:1;stroke-linecap:butt;stroke-linejoin:miter;stroke-miterlimit:10;stroke-dasharray:none;stroke-opacity:1"
             id="path166" /></g><g
           id="g168"
           transform="translate(1118.1572,878.0156)"><path
             d="m 0,0 h 17.855 l 4.052,10.237 H 4.052 Z"
             style="fill:#ffffff;fill-opacity:1;fill-rule:nonzero;stroke:none"
             id="path170" /></g><g
           id="g172"
           transform="translate(1118.1572,878.0156)"><path
             d="m 0,0 h 17.855 l 4.052,10.237 H 4.052 Z"
             style="fill:none;stroke:#000000;stroke-width:1;stroke-linecap:butt;stroke-linejoin:miter;stroke-miterlimit:10;stroke-dasharray:none;stroke-opacity:1"
             id="path174" /></g><g
           id="g176"
           transform="translate(987.5176,892.8027)"><path
             d="m 0,0 h 17.855 l 4.278,10.806 H 4.277 Z"
             style="fill:#ffffff;fill-opacity:1;fill-rule:nonzero;stroke:none"
             id="path178" /></g><g
           id="g180"
           transform="translate(987.5176,892.8027)"><path
             d="m 0,0 h 17.855 l 4.278,10.806 H 4.277 Z"
             style="fill:none;stroke:#000000;stroke-width:1;stroke-linecap:butt;stroke-linejoin:miter;stroke-miterlimit:10;stroke-dasharray:none;stroke-opacity:1"
             id="path182" /></g><g
           id="g184"
           transform="translate(935.3262,888.2529)"><path
             d="m 0,0 h -17.855 l -4.053,-10.237 h 17.856 z"
             style="fill:#ffffff;fill-opacity:1;fill-rule:nonzero;stroke:none"
             id="path186" /></g><g
           id="g188"
           transform="translate(935.3262,888.2529)"><path
             d="m 0,0 h -17.855 l -4.053,-10.237 h 17.856 z"
             style="fill:none;stroke:#000000;stroke-width:1;stroke-linecap:butt;stroke-linejoin:miter;stroke-miterlimit:10;stroke-dasharray:none;stroke-opacity:1"
             id="path190" /></g><g
           id="g192"
           transform="translate(958.0752,888.2529)"><path
             d="m 0,0 h -17.856 l -4.052,-10.237 h 17.856 z"
             style="fill:#ffffff;fill-opacity:1;fill-rule:nonzero;stroke:none"
             id="path194" /></g><g
           id="g196"
           transform="translate(958.0752,888.2529)"><path
             d="m 0,0 h -17.856 l -4.052,-10.237 h 17.856 z"
             style="fill:none;stroke:#000000;stroke-width:1;stroke-linecap:butt;stroke-linejoin:miter;stroke-miterlimit:10;stroke-dasharray:none;stroke-opacity:1"
             id="path198" /></g><g
           id="g200"
           transform="translate(980.8237,888.2529)"><path
             d="m 0,0 h -17.856 l -4.052,-10.237 h 17.856 z"
             style="fill:#ffffff;fill-opacity:1;fill-rule:nonzero;stroke:none"
             id="path202" /></g><g
           id="g204"
           transform="translate(980.8237,888.2529)"><path
             d="m 0,0 h -17.856 l -4.052,-10.237 h 17.856 z"
             style="fill:none;stroke:#000000;stroke-width:1;stroke-linecap:butt;stroke-linejoin:miter;stroke-miterlimit:10;stroke-dasharray:none;stroke-opacity:1"
             id="path206" /></g><g
           id="g208"
           transform="translate(912.5776,888.2529)"><path
             d="m 0,0 h -17.856 l -4.052,-10.237 h 17.856 z"
             style="fill:#ffffff;fill-opacity:1;fill-rule:nonzero;stroke:none"
             id="path210" /></g><g
           id="g212"
           transform="translate(912.5776,888.2529)"><path
             d="m 0,0 h -17.856 l -4.052,-10.237 h 17.856 z"
             style="fill:none;stroke:#000000;stroke-width:1;stroke-linecap:butt;stroke-linejoin:miter;stroke-miterlimit:10;stroke-dasharray:none;stroke-opacity:1"
             id="path214" /></g><g
           id="g216"
           transform="translate(1003.5723,888.2529)"><path
             d="m 0,0 h -17.855 l -4.053,-10.237 h 17.856 z"
             style="fill:#ffffff;fill-opacity:1;fill-rule:nonzero;stroke:none"
             id="path218" /></g><g
           id="g220"
           transform="translate(1003.5723,888.2529)"><path
             d="m 0,0 h -17.855 l -4.053,-10.237 h 17.856 z"
             style="fill:none;stroke:#000000;stroke-width:1;stroke-linecap:butt;stroke-linejoin:miter;stroke-miterlimit:10;stroke-dasharray:none;stroke-opacity:1"
             id="path222" /></g><g
           id="g224"
           transform="translate(867.9209,878.0156)"><path
             d="m 0,0 h 17.856 l 4.052,10.237 H 4.052 Z"
             style="fill:#ffffff;fill-opacity:1;fill-rule:nonzero;stroke:none"
             id="path226" /></g><g
           id="g228"
           transform="translate(867.9209,878.0156)"><path
             d="m 0,0 h 17.856 l 4.052,10.237 H 4.052 Z"
             style="fill:none;stroke:#000000;stroke-width:1;stroke-linecap:butt;stroke-linejoin:miter;stroke-miterlimit:10;stroke-dasharray:none;stroke-opacity:1"
             id="path230" /></g><g
           id="g232"
           transform="translate(851.0254,892.8027)"><path
             d="m 0,0 h 17.856 l 4.277,10.806 H 4.277 Z"
             style="fill:#ffffff;fill-opacity:1;fill-rule:nonzero;stroke:none"
             id="path234" /></g><g
           id="g236"
           transform="translate(851.0254,892.8027)"><path
             d="m 0,0 h 17.856 l 4.277,10.806 H 4.277 Z"
             style="fill:none;stroke:#000000;stroke-width:1;stroke-linecap:butt;stroke-linejoin:miter;stroke-miterlimit:10;stroke-dasharray:none;stroke-opacity:1"
             id="path238" /></g><g
           id="g240"
           transform="translate(1088.7139,873.4658)"><path
             d="m 0,0 h -17.855 l -2.477,-6.256 h 17.856 z"
             style="fill:#ffffff;fill-opacity:1;fill-rule:nonzero;stroke:none"
             id="path242" /></g><g
           id="g244"
           transform="translate(1088.7139,873.4658)"><path
             d="m 0,0 h -17.855 l -2.477,-6.256 h 17.856 z"
             style="fill:none;stroke:#000000;stroke-width:1;stroke-linecap:butt;stroke-linejoin:miter;stroke-miterlimit:10;stroke-dasharray:none;stroke-opacity:1"
             id="path246" /></g><g
           id="g248"
           transform="translate(1065.9658,873.4658)"><path
             d="m 0,0 h -17.856 l -2.476,-6.256 h 17.855 z"
             style="fill:#ffffff;fill-opacity:1;fill-rule:nonzero;stroke:none"
             id="path250" /></g><g
           id="g252"
           transform="translate(1065.9658,873.4658)"><path
             d="m 0,0 h -17.856 l -2.476,-6.256 h 17.855 z"
             style="fill:none;stroke:#000000;stroke-width:1;stroke-linecap:butt;stroke-linejoin:miter;stroke-miterlimit:10;stroke-dasharray:none;stroke-opacity:1"
             id="path254" /></g><g
           id="g256"
           transform="translate(1111.4629,873.4658)"><path
             d="m 0,0 h -17.855 l -2.477,-6.256 h 17.855 z"
             style="fill:#ffffff;fill-opacity:1;fill-rule:nonzero;stroke:none"
             id="path258" /></g><g
           id="g260"
           transform="translate(1111.4629,873.4658)"><path
             d="m 0,0 h -17.855 l -2.477,-6.256 h 17.855 z"
             style="fill:none;stroke:#000000;stroke-width:1;stroke-linecap:butt;stroke-linejoin:miter;stroke-miterlimit:10;stroke-dasharray:none;stroke-opacity:1"
             id="path262" /></g><g
           id="g264"
           transform="translate(1043.2168,873.4658)"><path
             d="m 0,0 h -17.855 l -2.477,-6.256 h 17.855 z"
             style="fill:#ffffff;fill-opacity:1;fill-rule:nonzero;stroke:none"
             id="path266" /></g><g
           id="g268"
           transform="translate(1043.2168,873.4658)"><path
             d="m 0,0 h -17.855 l -2.477,-6.256 h 17.855 z"
             style="fill:none;stroke:#000000;stroke-width:1;stroke-linecap:butt;stroke-linejoin:miter;stroke-miterlimit:10;stroke-dasharray:none;stroke-opacity:1"
             id="path270" /></g><g
           id="g272"
           transform="translate(1020.4678,873.4658)"><path
             d="m 0,0 h -17.855 l -2.477,-6.256 h 17.856 z"
             style="fill:#ffffff;fill-opacity:1;fill-rule:nonzero;stroke:none"
             id="path274" /></g><g
           id="g276"
           transform="translate(1020.4678,873.4658)"><path
             d="m 0,0 h -17.855 l -2.477,-6.256 h 17.856 z"
             style="fill:none;stroke:#000000;stroke-width:1;stroke-linecap:butt;stroke-linejoin:miter;stroke-miterlimit:10;stroke-dasharray:none;stroke-opacity:1"
             id="path278" /></g><g
           id="g280"
           transform="translate(1151.0361,903.6084)"><path
             d="M 0,0 -4.277,-10.806 H 13.578 L 16.332,-3.849 14.793,0 Z"
             style="fill:#ffffff;fill-opacity:1;fill-rule:nonzero;stroke:none"
             id="path282" /></g><g
           id="g284"
           transform="translate(1151.0361,903.6084)"><path
             d="M 0,0 -4.277,-10.806 H 13.578 L 16.332,-3.849 14.793,0 Z"
             style="fill:none;stroke:#000000;stroke-width:1;stroke-linecap:butt;stroke-linejoin:miter;stroke-miterlimit:10;stroke-dasharray:none;stroke-opacity:1"
             id="path286" /></g><g
           id="g288"
           transform="translate(846.1323,892.8027)"><path
             d="M 0,0 4.277,10.806 H -15.512 L -20.375,0 Z"
             style="fill:#ffffff;fill-opacity:1;fill-rule:nonzero;stroke:none"
             id="path290" /></g><g
           id="g292"
           transform="translate(846.1323,892.8027)"><path
             d="M 0,0 4.277,10.806 H -15.512 L -20.375,0 Z"
             style="fill:none;stroke:#000000;stroke-width:1;stroke-linecap:butt;stroke-linejoin:miter;stroke-miterlimit:10;stroke-dasharray:none;stroke-opacity:1"
             id="path294" /></g><g
           id="g296"
           transform="translate(997.7192,873.4658)"><path
             d="m 0,0 h -17.855 l -2.477,-6.256 h 17.856 z"
             style="fill:#ffffff;fill-opacity:1;fill-rule:nonzero;stroke:none"
             id="path298" /></g><g
           id="g300"
           transform="translate(997.7192,873.4658)"><path
             d="m 0,0 h -17.855 l -2.477,-6.256 h 17.856 z"
             style="fill:none;stroke:#000000;stroke-width:1;stroke-linecap:butt;stroke-linejoin:miter;stroke-miterlimit:10;stroke-dasharray:none;stroke-opacity:1"
             id="path302" /></g><g
           id="g304"
           transform="translate(1134.2119,873.4658)"><path
             d="m 0,0 h -17.856 l -2.476,-6.256 h 17.855 z"
             style="fill:#ffffff;fill-opacity:1;fill-rule:nonzero;stroke:none"
             id="path306" /></g><g
           id="g308"
           transform="translate(1134.2119,873.4658)"><path
             d="m 0,0 h -17.856 l -2.476,-6.256 h 17.855 z"
             style="fill:none;stroke:#000000;stroke-width:1;stroke-linecap:butt;stroke-linejoin:miter;stroke-miterlimit:10;stroke-dasharray:none;stroke-opacity:1"
             id="path310" /></g><g
           id="g312"
           transform="translate(1156.96,873.4658)"><path
             d="m 0,0 h -17.855 l -2.477,-6.256 h 17.856 z"
             style="fill:#ffffff;fill-opacity:1;fill-rule:nonzero;stroke:none"
             id="path314" /></g><g
           id="g316"
           transform="translate(1156.96,873.4658)"><path
             d="m 0,0 h -17.855 l -2.477,-6.256 h 17.856 z"
             style="fill:none;stroke:#000000;stroke-width:1;stroke-linecap:butt;stroke-linejoin:miter;stroke-miterlimit:10;stroke-dasharray:none;stroke-opacity:1"
             id="path318" /></g><g
           id="g320"
           transform="translate(1170.1514,892.8027)"><path
             d="M 0,0 -0.324,0.809 -0.645,0 Z"
             style="fill:#ffffff;fill-opacity:1;fill-rule:nonzero;stroke:none"
             id="path322" /></g><g
           id="g324"
           transform="translate(1170.1514,892.8027)"><path
             d="M 0,0 -0.324,0.809 -0.645,0 Z"
             style="fill:none;stroke:#000000;stroke-width:1;stroke-linecap:butt;stroke-linejoin:miter;stroke-miterlimit:10;stroke-dasharray:none;stroke-opacity:1"
             id="path326" /></g><g
           id="g328"
           transform="translate(929.4731,873.4658)"><path
             d="m 0,0 h -17.855 l -2.477,-6.256 h 17.856 z"
             style="fill:#ffffff;fill-opacity:1;fill-rule:nonzero;stroke:none"
             id="path330" /></g><g
           id="g332"
           transform="translate(929.4731,873.4658)"><path
             d="m 0,0 h -17.855 l -2.477,-6.256 h 17.856 z"
             style="fill:none;stroke:#000000;stroke-width:1;stroke-linecap:butt;stroke-linejoin:miter;stroke-miterlimit:10;stroke-dasharray:none;stroke-opacity:1"
             id="path334" /></g><g
           id="g336"
           transform="translate(896.5229,892.8027)"><path
             d="m 0,0 h 17.855 l 4.278,10.806 H 4.277 Z"
             style="fill:#ffffff;fill-opacity:1;fill-rule:nonzero;stroke:none"
             id="path338" /></g><g
           id="g340"
           transform="translate(896.5229,892.8027)"><path
             d="m 0,0 h 17.855 l 4.278,10.806 H 4.277 Z"
             style="fill:none;stroke:#000000;stroke-width:1;stroke-linecap:butt;stroke-linejoin:miter;stroke-miterlimit:10;stroke-dasharray:none;stroke-opacity:1"
             id="path342" /></g><g
           id="g344"
           transform="translate(873.7739,892.8027)"><path
             d="m 0,0 h 17.856 l 4.277,10.806 H 4.277 Z"
             style="fill:#ffffff;fill-opacity:1;fill-rule:nonzero;stroke:none"
             id="path346" /></g><g
           id="g348"
           transform="translate(873.7739,892.8027)"><path
             d="m 0,0 h 17.856 l 4.277,10.806 H 4.277 Z"
             style="fill:none;stroke:#000000;stroke-width:1;stroke-linecap:butt;stroke-linejoin:miter;stroke-miterlimit:10;stroke-dasharray:none;stroke-opacity:1"
             id="path350" /></g><g
           id="g352"
           transform="translate(863.0278,878.0156)"><path
             d="M 0,0 4.052,10.237 H -13.803 L -17.855,0 Z"
             style="fill:#ffffff;fill-opacity:1;fill-rule:nonzero;stroke:none"
             id="path354" /></g><g
           id="g356"
           transform="translate(863.0278,878.0156)"><path
             d="M 0,0 4.052,10.237 H -13.803 L -17.855,0 Z"
             style="fill:none;stroke:#000000;stroke-width:1;stroke-linecap:butt;stroke-linejoin:miter;stroke-miterlimit:10;stroke-dasharray:none;stroke-opacity:1"
             id="path358" /></g><g
           id="g360"
           transform="translate(942.02,892.8027)"><path
             d="m 0,0 h 17.856 l 4.277,10.806 H 4.277 Z"
             style="fill:#ffffff;fill-opacity:1;fill-rule:nonzero;stroke:none"
             id="path362" /></g><g
           id="g364"
           transform="translate(942.02,892.8027)"><path
             d="m 0,0 h 17.856 l 4.277,10.806 H 4.277 Z"
             style="fill:none;stroke:#000000;stroke-width:1;stroke-linecap:butt;stroke-linejoin:miter;stroke-miterlimit:10;stroke-dasharray:none;stroke-opacity:1"
             id="path366" /></g><g
           id="g368"
           transform="translate(919.2715,892.8027)"><path
             d="m 0,0 h 17.856 l 4.277,10.806 H 4.277 Z"
             style="fill:#ffffff;fill-opacity:1;fill-rule:nonzero;stroke:none"
             id="path370" /></g><g
           id="g372"
           transform="translate(919.2715,892.8027)"><path
             d="m 0,0 h 17.856 l 4.277,10.806 H 4.277 Z"
             style="fill:none;stroke:#000000;stroke-width:1;stroke-linecap:butt;stroke-linejoin:miter;stroke-miterlimit:10;stroke-dasharray:none;stroke-opacity:1"
             id="path374" /></g><g
           id="g376"
           transform="translate(974.9707,873.4658)"><path
             d="m 0,0 h -17.856 l -2.476,-6.256 h 17.856 z"
             style="fill:#ffffff;fill-opacity:1;fill-rule:nonzero;stroke:none"
             id="path378" /></g><g
           id="g380"
           transform="translate(974.9707,873.4658)"><path
             d="m 0,0 h -17.856 l -2.476,-6.256 h 17.856 z"
             style="fill:none;stroke:#000000;stroke-width:1;stroke-linecap:butt;stroke-linejoin:miter;stroke-miterlimit:10;stroke-dasharray:none;stroke-opacity:1"
             id="path382" /></g><g
           id="g384"
           transform="translate(952.2222,873.4658)"><path
             d="m 0,0 h -17.856 l -2.477,-6.256 h 17.856 z"
             style="fill:#ffffff;fill-opacity:1;fill-rule:nonzero;stroke:none"
             id="path386" /></g><g
           id="g388"
           transform="translate(952.2222,873.4658)"><path
             d="m 0,0 h -17.856 l -2.477,-6.256 h 17.856 z"
             style="fill:none;stroke:#000000;stroke-width:1;stroke-linecap:butt;stroke-linejoin:miter;stroke-miterlimit:10;stroke-dasharray:none;stroke-opacity:1"
             id="path390" /></g><g
           id="g392"
           transform="translate(964.769,892.8027)"><path
             d="m 0,0 h 17.855 l 4.278,10.806 H 4.277 Z"
             style="fill:#ffffff;fill-opacity:1;fill-rule:nonzero;stroke:none"
             id="path394" /></g><g
           id="g396"
           transform="translate(964.769,892.8027)"><path
             d="m 0,0 h 17.855 l 4.278,10.806 H 4.277 Z"
             style="fill:none;stroke:#000000;stroke-width:1;stroke-linecap:butt;stroke-linejoin:miter;stroke-miterlimit:10;stroke-dasharray:none;stroke-opacity:1"
             id="path398" /></g><g
           id="g400"
           transform="translate(883.9761,873.4658)"><path
             d="m 0,0 h -17.856 l -2.477,-6.256 h 17.856 z"
             style="fill:#ffffff;fill-opacity:1;fill-rule:nonzero;stroke:none"
             id="path402" /></g><g
           id="g404"
           transform="translate(883.9761,873.4658)"><path
             d="m 0,0 h -17.856 l -2.477,-6.256 h 17.856 z"
             style="fill:none;stroke:#000000;stroke-width:1;stroke-linecap:butt;stroke-linejoin:miter;stroke-miterlimit:10;stroke-dasharray:none;stroke-opacity:1"
             id="path406" /></g><g
           id="g408"
           transform="translate(858.751,867.21)"><path
             d="M 0,0 2.476,6.256 H -15.379 L -17.856,0 Z"
             style="fill:#ffffff;fill-opacity:1;fill-rule:nonzero;stroke:none"
             id="path410" /></g><g
           id="g412"
           transform="translate(858.751,867.21)"><path
             d="M 0,0 2.476,6.256 H -15.379 L -17.856,0 Z"
             style="fill:none;stroke:#000000;stroke-width:1;stroke-linecap:butt;stroke-linejoin:miter;stroke-miterlimit:10;stroke-dasharray:none;stroke-opacity:1"
             id="path414" /></g><g
           id="g416"
           transform="translate(906.7246,873.4658)"><path
             d="m 0,0 h -17.856 l -2.476,-6.256 h 17.856 z"
             style="fill:#ffffff;fill-opacity:1;fill-rule:nonzero;stroke:none"
             id="path418" /></g><g
           id="g420"
           transform="translate(906.7246,873.4658)"><path
             d="m 0,0 h -17.856 l -2.476,-6.256 h 17.856 z"
             style="fill:none;stroke:#000000;stroke-width:1;stroke-linecap:butt;stroke-linejoin:miter;stroke-miterlimit:10;stroke-dasharray:none;stroke-opacity:1"
             id="path422" /></g><g
           id="g424"
           transform="translate(830.522,1126.1294)"><path
             d="m 0,0 c -3.558,-0.081 -7.094,-0.616 -10.565,-1.63 -17.42,-5.082 -29.731,12.059 -44.062,18.472 -16.103,7.207 -33.872,6.335 -50.489,1.408 -11.425,-3.388 -23.958,1.252 -16.481,14.372 13.634,23.92 18.182,51.123 17.305,78.395 -0.243,7.578 1.037,14.796 3.748,21.849 2.321,6.041 6.424,7.695 12.26,5.348 7.364,-2.961 9.204,-8.816 15.199,-13.295 7.194,-5.368 17.09,-2.207 24.78,-6.196 10.866,-5.637 23.602,-10.083 29.389,3.353 5.093,11.826 6.368,30.438 -2.751,40.778 -18.555,21.04 -68.327,25.68 -90.916,9.768 -14.069,-9.914 -22.364,-27.805 -32.154,-41.592 -24.062,-33.884 -46.553,-70.253 -57.309,-110.771 -3.253,-12.253 -1.43,-20.095 8.499,-28.334 17.092,-14.182 33.726,-28.711 48.439,-45.916 20.076,-23.478 46.215,-39.16 78.641,-40.496 18.526,-0.763 30.841,-8.604 37.047,-27.163 7.483,-22.377 16.324,-44.546 29.42,-64.101 z"
             style="fill:#000000;fill-opacity:1;fill-rule:nonzero;stroke:none"
             id="path426" /></g><g
           id="g428"
           transform="translate(1169.4775,1126.1294)"><path
             d="m 0,0 c 3.559,-0.081 7.094,-0.616 10.566,-1.63 17.42,-5.082 29.731,12.059 44.062,18.472 16.102,7.207 33.871,6.335 50.488,1.408 11.425,-3.388 23.959,1.252 16.482,14.372 -13.634,23.92 -18.183,51.123 -17.306,78.395 0.244,7.578 -1.036,14.796 -3.747,21.849 -2.322,6.041 -6.425,7.695 -12.261,5.348 -7.363,-2.961 -9.204,-8.816 -15.198,-13.295 -7.194,-5.368 -17.091,-2.207 -24.78,-6.196 -10.866,-5.637 -23.603,-10.083 -29.39,3.353 -5.093,11.826 -6.367,30.438 2.751,40.778 18.556,21.04 68.328,25.68 90.916,9.768 14.069,-9.914 22.364,-27.805 32.154,-41.592 C 168.8,97.146 191.29,60.777 202.047,20.259 205.3,8.006 203.477,0.164 193.548,-8.075 176.456,-22.257 159.821,-36.786 145.108,-53.991 125.032,-77.469 98.894,-93.151 66.468,-94.487 47.942,-95.25 35.627,-103.091 29.421,-121.65 21.937,-144.027 13.097,-166.196 0,-185.751 Z"
             style="fill:#000000;fill-opacity:1;fill-rule:nonzero;stroke:none"
             id="path430" /></g></g></g></g></svg>
